<svg xmlns="http://www.w3.org/2000/svg" xmlns:xlink="http://www.w3.org/1999/xlink" version="1.1" x="0px" y="0px" viewBox="0 0 100 125" enable-background="new 0 0 100 100" xml:space="preserve"><path d="M90.861,51.847c-3.641-5.361-16.009-22.855-22.282-22.855h-6.1c-0.419,0-0.817,0.158-1.132,0.427l-9.787-6.07v-3.296  c3.369-0.794,5.887-3.818,5.887-7.426c0-4.211-3.426-7.637-7.637-7.637s-7.637,3.426-7.637,7.637c0,0.966,0.784,1.75,1.75,1.75  s1.75-0.784,1.75-1.75c0-2.281,1.856-4.137,4.137-4.137c2.281,0,4.137,1.856,4.137,4.137s-1.855,4.137-4.137,4.137  c-0.966,0-1.75,0.784-1.75,1.75v4.838l-9.328,5.784c-0.216-0.093-0.451-0.143-0.691-0.143h-7.797  c-5.947,0-18.68,17.477-22.441,22.833c-0.527,0.752-0.385,1.782,0.326,2.362l14.08,11.479c0.749,0.609,1.851,0.498,2.462-0.251  l0.99-1.214v27.208c0,0.967,0.784,1.75,1.75,1.75h44.167c0.966,0,1.75-0.783,1.75-1.75v-26.79l0.649,0.797  c0.611,0.748,1.714,0.86,2.463,0.25L90.52,54.187C91.223,53.613,91.371,52.598,90.861,51.847z M49.812,26.382l10.709,6.643  c-0.753,3.063-3.539,5.346-6.859,5.346h-6.834c-3.482,0-6.373-2.532-6.931-5.84L49.812,26.382z M75.586,61.847l-2.65-3.249  c-0.469-0.574-1.248-0.792-1.943-0.543c-0.697,0.248-1.163,0.908-1.163,1.648v29.955H29.162V59.285c0-0.74-0.466-1.4-1.163-1.648  c-0.696-0.248-1.476-0.031-1.943,0.543l-2.99,3.667L11.61,52.508c2.298-3.207,4.783-6.44,7.185-9.348  c1.032-1.25,2.048-2.439,3.028-3.54c3.756-4.218,6.969-7.129,8.422-7.129h3.075h3.032c0.073,0.683,0.215,1.345,0.413,1.982  c0.865,2.779,2.858,5.065,5.444,6.329c1.396,0.682,2.962,1.069,4.619,1.069h6.834c1.661,0,3.232-0.387,4.632-1.069  c2.45-1.193,4.362-3.301,5.3-5.873c0.282-0.776,0.485-1.59,0.576-2.438h2.132h2.277c1.427,0,4.264,2.456,7.594,6.123  c1.384,1.524,2.853,3.257,4.342,5.112c2.211,2.754,4.464,5.772,6.544,8.767L75.586,61.847z" fill="#877EFF"/></svg>